<svg width="1686" height="816" viewBox="0 0 1686 816" fill="none" xmlns="http://www.w3.org/2000/svg">
<path d="M1643.42 26.6665H42.5757V789.333H1643.42V26.6665Z" fill="#FFE1C2" stroke="#B28271" stroke-width="1.06667" stroke-linecap="square"/>
<path d="M76.4318 24C57.0207 24 41.1377 24.055 41.1377 24.123C41.1377 24.1911 57.0207 33.0957 76.4318 43.9119L111.659 63.9115L1577.11 64.2796V63.5655L1612.39 43.9119C1631.8 33.0957 1647.68 24.1911 1647.68 24.123C1647.68 24.055 1631.8 24 1612.39 24H1577.11H1577.09H111.722H111.659H76.4318Z" fill="#D3B292" stroke="#B28271" stroke-width="1.06667"/>
<path d="M41.351 24.0004C41.233 24.0004 41.1376 33.159 41.1376 44.352V64.7037V751.299V751.327V771.651C41.1376 782.844 41.2331 792 41.351 792C41.4691 792 56.9151 782.844 75.6726 771.651L109.728 751.327H110.991L110.376 64.6932L75.6726 44.3516C56.9151 33.1586 41.4691 24.0004 41.351 24.0004Z" fill="#D3B292" stroke="#B28271" stroke-width="1.06667" stroke-linecap="square"/>
<path d="M1645.79 792C1645.9 792 1646 782.841 1646 771.648V751.296V64.7008V64.6729V44.3495C1646 33.1566 1645.9 24 1645.79 24C1645.67 24 1630.19 33.1566 1611.39 44.3495L1577.27 64.6729H1576L1576.62 751.307L1611.39 771.648C1630.19 782.841 1645.67 792 1645.79 792Z" fill="#D3B292" stroke="#B28271" stroke-width="1.06667" stroke-linecap="square"/>
<path d="M1609.57 792C1628.98 792 1644.86 791.945 1644.86 791.877C1644.86 791.809 1628.98 782.904 1609.57 772.088L1574.34 752.088L108.885 751.72V752.434L73.612 772.088C54.2008 782.904 38.3179 791.809 38.3179 791.877C38.3179 791.945 54.2008 792 73.612 792H108.885H108.906H1574.28H1574.34H1609.57Z" fill="#D3B292" stroke="#B28271" stroke-width="1.06667"/>
</svg>
